<svg width="70" height="70" viewBox="0 0 70 70" fill="none" xmlns="http://www.w3.org/2000/svg">
<path d="M61.1112 11.7124C60.7668 11.299 60.2845 11.0923 59.6644 11.0923C58.631 11.0923 57.7353 11.9191 57.7353 13.0214C57.7353 13.5037 57.942 13.986 58.2176 14.2616C63.3848 19.98 66.2096 27.3519 66.2096 35.0683C66.2096 52.2925 52.2236 66.2785 34.9995 66.2785C17.7753 66.2785 3.78931 52.2925 3.78931 35.0683C3.78931 17.8442 17.7753 3.85821 34.9995 3.85821C37.7553 3.85821 40.4423 4.20269 43.0603 4.89165C43.1981 4.96055 43.4048 4.96055 43.5426 4.96055C44.5761 4.96055 45.4717 4.13379 45.4717 3.03145C45.4717 2.13579 44.8517 1.44683 44.0938 1.17124C41.1312 0.413379 38.0998 0 34.9995 0C15.7084 0 0 15.7084 0 34.9994C0 54.2905 15.7084 69.9989 34.9995 69.9989C54.2905 69.9989 69.9989 54.2905 69.9989 34.9994C70.0678 26.4563 66.8985 18.1198 61.1112 11.7124Z" fill="#F29022"/>
<path d="M47.6059 9.99031H49.8794V12.2639C49.8794 13.2973 50.7062 14.193 51.8086 14.193C52.842 14.193 53.7377 13.3662 53.7377 12.2639V9.99031H56.0112C57.0447 9.99031 57.9404 9.16355 57.9404 8.0612C57.9404 7.02776 57.1136 6.1321 56.0112 6.1321H53.7377V3.85852C53.7377 2.82507 52.9109 1.92941 51.8086 1.92941C50.7751 1.92941 49.8794 2.75617 49.8794 3.85852V6.1321H47.6059C46.5724 6.1321 45.6768 6.95886 45.6768 8.0612C45.7457 9.09465 46.5724 9.99031 47.6059 9.99031Z" fill="#F29022"/>
</svg>
